<svg width="160" height="160" viewBox="0 0 256 256" fill="green" xmlns="http://www.w3.org/2000/svg" role="img" aria-labelledby="title desc">
  <title id="title">Sardor Shop Icon</title>
  <desc id="desc">Shopping bag with a stylized S cut out, gradient fill and soft shadow.</desc>
  <defs>
    <!-- Easily customize colors with CSS variables -->
    <linearGradient id="bagGradient" x1="32" y1="32" x2="224" y2="224" gradientUnits="userSpaceOnUse">
      <stop offset="0" stop-color="var(--sardor-primary, #6C5CE7)"/>
      <stop offset="1" stop-color="var(--sardor-accent, #00D4FF)"/>
    </linearGradient>

    <!-- Soft drop shadow -->
    <filter id="softShadow" x="-30%" y="-30%" width="160%" height="160%" color-interpolation-filters="sRGB">
      <feDropShadow dx="0" dy="8" stdDeviation="10" flood-opacity="0.18"/>
    </filter>

    <!-- Mask to knock the S out of the bag -->
    <mask id="cutS" maskUnits="userSpaceOnUse">
      <!-- Opaque canvas -->
      <rect x="0" y="0" width="256" height="256" fill="white"/>
      <!-- The S path in black removes from the bag -->
      <path d="M168 116
               C168 94 150 78 128 78
               C106 78 92 92 92 108
               C92 140 168 132 168 176
               C168 198 150 216 128 216
               C106 216 92 200 92 180"
            fill="none" stroke="black" stroke-width="28" stroke-linecap="round" stroke-linejoin="round"/>
    </mask>
  </defs>

  <!-- Bag body with cut-out S and subtle outline -->
  <g filter="url(#softShadow)">
    <g mask="url(#cutS)">
      <rect x="48" y="76" width="160" height="160" rx="28" fill="url(#bagGradient)"/>
    </g>
    <rect x="48" y="76" width="160" height="160" rx="28"
          fill="none" stroke="rgba(0,0,0,0.10)" stroke-width="2"/>
  </g>

  <!-- Handle -->
  <path d="M88 96c0-26 18-48 40-48s40 22 40 48"
        fill="none" stroke="url(#bagGradient)" stroke-width="14" stroke-linecap="round"/>

  <!-- Handle studs -->
  <circle cx="96" cy="96" r="6" fill="url(#bagGradient)"/>
  <circle cx="160" cy="96" r="6" fill="url(#bagGradient)"/>

  <!-- Small sparkle accent -->
  <path d="M204 64l4-10l4 10l10 4l-10 4l-4 10l-4-10l-10-4l10-4z"
        fill="url(#bagGradient)" opacity="0.9"/>
</svg>
